# xmcd
#
# Track frame offsets:
#	150
#	15166
#	39804
#	68740
#	83691
#	97304
#	115942
#	138036
#	154106
#	170511
#	184302
#	195736
#
# Disc length: 2835 seconds
#
# Revision: 1
# Processed by: cddbd v1.5.2PL0 Copyright (c) Steve Scherf et al.
# Submitted via: EZCDAudioConverter 2.2.2.1
#
DISCID=910b110c
DTITLE=Varios Artistas - Jazz And Blues Masters...Disco 1
DYEAR=1900
DGENRE=
TTITLE0=Luis Armstrong - Mack The Knife
TTITLE1=Dave Brubeck - Take 5 (Toma 5)
TTITLE2=John Coltrane - Blue Train
TTITLE3=Sidney Bechet - Petite Fleur
TTITLE4=Coleman Hawkins - Body And Soul
TTITLE5=Modern Jazz Quartet - Django
TTITLE6=Bill Evans - Waltz For Debby
TTITLE7=Artie Shaw - Stardust
TTITLE8=Nina Simone - My Baby Just Care For Me
TTITLE9=Sarah Vaughan - Misty
TTITLE10=Dinah Washington - What A Difference A Day Makes
TTITLE11=Lester Young - Oscar Peterson - I'm Confesing That I Love You
EXTD=
EXTT0=
EXTT1=
EXTT2=
EXTT3=
EXTT4=
EXTT5=
EXTT6=
EXTT7=
EXTT8=
EXTT9=
EXTT10=
EXTT11=
PLAYORDER=
